<?xml version="1.0" encoding="us-ascii" standalone="no"?><svg xmlns="http://www.w3.org/2000/svg" xmlns:xlink="http://www.w3.org/1999/xlink" contentStyleType="text/css" height="1128px" preserveAspectRatio="none" style="width:302px;height:1128px;background:#FFFFFF;" version="1.1" viewBox="0 0 302 1128" width="302px" zoomAndPan="magnify"><defs/><g><!--cluster Note Wave API--><g id="cluster_Note Wave API"><rect fill="none" height="1115" rx="2.5" ry="2.5" style="stroke:#181818;stroke-width:1.0;" width="194.89" x="102" y="7"/><text fill="#000000" font-family="sans-serif" font-size="14" font-weight="bold" lengthAdjust="spacing" textLength="115" x="141.945" y="21.9951">Note Wave API</text></g><g id="elem_CN"><ellipse cx="199.4464" cy="57.0022" fill="#F1F1F1" rx="60.0664" ry="14.7722" style="stroke:#181818;stroke-width:0.5;"/><text fill="#000000" font-family="sans-serif" font-size="14" lengthAdjust="spacing" textLength="67" x="162.9464" y="60.7498">Criar Nota</text></g><g id="elem_EN"><ellipse cx="199.4548" cy="122.005" fill="#F1F1F1" rx="63.7248" ry="15.145" style="stroke:#181818;stroke-width:0.5;"/><text fill="#000000" font-family="sans-serif" font-size="14" lengthAdjust="spacing" textLength="75" x="158.9548" y="125.7525">Editar Nota</text></g><g id="elem_DN"><ellipse cx="199.4533" cy="188.0047" fill="#F1F1F1" rx="67.5233" ry="15.9047" style="stroke:#181818;stroke-width:0.5;"/><text fill="#000000" font-family="sans-serif" font-size="14" lengthAdjust="spacing" textLength="86" x="153.4533" y="191.7522">Deletar Nota</text></g><g id="elem_VN"><ellipse cx="199.4468" cy="255.9974" fill="#F1F1F1" rx="72.6868" ry="16.9374" style="stroke:#181818;stroke-width:0.5;"/><text fill="#000000" font-family="sans-serif" font-size="14" lengthAdjust="spacing" textLength="100" x="146.4468" y="259.7449">Visualizar Nota</text></g><g id="elem_CP"><ellipse cx="199.4455" cy="323.0031" fill="#F1F1F1" rx="65.7655" ry="15.5531" style="stroke:#181818;stroke-width:0.5;"/><text fill="#000000" font-family="sans-serif" font-size="14" lengthAdjust="spacing" textLength="81" x="155.9455" y="326.7507">Criar P&#225;gina</text></g><g id="elem_EP"><ellipse cx="199.4511" cy="390.0002" fill="#F1F1F1" rx="68.6011" ry="16.1202" style="stroke:#181818;stroke-width:0.5;"/><text fill="#000000" font-family="sans-serif" font-size="14" lengthAdjust="spacing" textLength="89" x="151.9511" y="393.7478">Editar P&#225;gina</text></g><g id="elem_DP"><ellipse cx="199.4468" cy="457.9974" fill="#F1F1F1" rx="72.6868" ry="16.9374" style="stroke:#181818;stroke-width:0.5;"/><text fill="#000000" font-family="sans-serif" font-size="14" lengthAdjust="spacing" textLength="100" x="146.4468" y="461.7449">Deletar P&#225;gina</text></g><g id="elem_VP"><ellipse cx="199.4451" cy="528.001" fill="#F1F1F1" rx="78.1551" ry="18.031" style="stroke:#181818;stroke-width:0.5;"/><text fill="#000000" font-family="sans-serif" font-size="14" lengthAdjust="spacing" textLength="114" x="140.0559" y="531.5866">Visualizar P&#225;gina</text></g><g id="elem_RU"><ellipse cx="199.4539" cy="598.9968" fill="#F1F1F1" rx="79.7839" ry="18.3568" style="stroke:#181818;stroke-width:0.5;"/><text fill="#000000" font-family="sans-serif" font-size="14" lengthAdjust="spacing" textLength="118" x="138.7056" y="602.4013">Registrar Usu&#225;rio</text></g><g id="elem_LL"><ellipse cx="199.454" cy="669.0028" fill="#F1F1F1" rx="68.964" ry="16.1928" style="stroke:#181818;stroke-width:0.5;"/><text fill="#000000" font-family="sans-serif" font-size="14" lengthAdjust="spacing" textLength="90" x="151.454" y="672.7504">Login/Logout</text></g><g id="elem_RS"><ellipse cx="199.4507" cy="739.0021" fill="#F1F1F1" rx="80.6107" ry="18.5221" style="stroke:#181818;stroke-width:0.5;"/><text fill="#000000" font-family="sans-serif" font-size="14" lengthAdjust="spacing" textLength="120" x="138.0126" y="742.3148">Recuperar Senha</text></g><g id="elem_AP"><ellipse cx="199.4549" cy="809.001" fill="#F1F1F1" rx="70.8049" ry="16.561" style="stroke:#181818;stroke-width:0.5;"/><text fill="#000000" font-family="sans-serif" font-size="14" lengthAdjust="spacing" textLength="95" x="148.9549" y="812.7485">Atualizar Perfil</text></g><g id="elem_GA"><ellipse cx="199.4455" cy="878.9991" fill="#F1F1F1" rx="81.4455" ry="18.6891" style="stroke:#181818;stroke-width:0.5;"/><text fill="#000000" font-family="sans-serif" font-size="14" lengthAdjust="spacing" textLength="122" x="137.3109" y="882.219">Gerenciar Acesso</text></g><g id="elem_MA"><ellipse cx="199.454" cy="949.0028" fill="#F1F1F1" rx="68.964" ry="16.1928" style="stroke:#181818;stroke-width:0.5;"/><text fill="#000000" font-family="sans-serif" font-size="14" lengthAdjust="spacing" textLength="90" x="151.454" y="952.7504">Monitorar API</text></g><g id="elem_GE"><ellipse cx="199.4544" cy="1017.9969" fill="#F1F1F1" rx="75.3844" ry="17.4769" style="stroke:#181818;stroke-width:0.5;"/><text fill="#000000" font-family="sans-serif" font-size="14" lengthAdjust="spacing" textLength="107" x="142.9544" y="1021.7444">Gerenciar Erros</text></g><g id="elem_ET"><ellipse cx="199.4536" cy="1088.0007" fill="#F1F1F1" rx="77.3536" ry="17.8707" style="stroke:#181818;stroke-width:0.5;"/><text fill="#000000" font-family="sans-serif" font-size="14" lengthAdjust="spacing" textLength="112" x="140.7333" y="1091.6754">Executar Testes</text></g><!--entity U--><g id="elem_U"><ellipse cx="32" cy="394.35" fill="#F1F1F1" rx="8" ry="8" style="stroke:#181818;stroke-width:0.5;"/><path d="M32,402.35 L32,429.35 M19,410.35 L45,410.35 M32,429.35 L19,444.35 M32,429.35 L45,444.35 " fill="none" style="stroke:#181818;stroke-width:0.5;"/><text fill="#000000" font-family="sans-serif" font-size="14" lengthAdjust="spacing" textLength="52" x="6" y="458.8451">Usuario</text></g><!--entity A--><g id="elem_A"><ellipse cx="32" cy="953.35" fill="#F1F1F1" rx="8" ry="8" style="stroke:#181818;stroke-width:0.5;"/><path d="M32,961.35 L32,988.35 M19,969.35 L45,969.35 M32,988.35 L19,1003.35 M32,988.35 L45,1003.35 " fill="none" style="stroke:#181818;stroke-width:0.5;"/><text fill="#000000" font-family="sans-serif" font-size="14" lengthAdjust="spacing" textLength="43" x="10.5" y="1017.8451">Admin</text></g><!--link U to CN--><g id="link_U_CN"><path d="M35.08,385.46 C40.08,306.99 55.36,132.46 94,89 C106.54,74.9 125.11,66.92 143.13,62.45 " fill="none" id="U-CN" style="stroke:#181818;stroke-width:1.0;"/></g><!--link U to EN--><g id="link_U_EN"><path d="M37.02,385.47 C44.66,319.4 63.32,188.34 94,155 C106.43,141.5 124.33,133.48 141.81,128.74 " fill="none" id="U-EN" style="stroke:#181818;stroke-width:1.0;"/></g><!--link U to DN--><g id="link_U_DN"><path d="M34.31,385.6 C37.91,340.54 50.57,266.38 94,222 C106.54,209.19 123.95,201.2 140.97,196.22 " fill="none" id="U-DN" style="stroke:#181818;stroke-width:1.0;"/></g><!--link U to VN--><g id="link_U_VN"><path d="M41.52,385.42 C50.03,355.5 65.98,315.03 94,290 C106.73,278.63 123.32,271.05 139.52,266.01 " fill="none" id="U-VN" style="stroke:#181818;stroke-width:1.0;"/></g><!--link U to CP--><g id="link_U_CP"><path d="M58.2,388.95 C68.2,377.1 80.54,364.68 94,356 C110.3,345.49 130.19,338.11 148.23,333.04 " fill="none" id="U-CP" style="stroke:#181818;stroke-width:1.0;"/></g><!--link U to EP--><g id="link_U_EP"><path d="M58.49,418.76 C81.87,413.96 117.23,406.69 146.55,400.66 " fill="none" id="U-EP" style="stroke:#181818;stroke-width:1.0;"/></g><!--link U to DP--><g id="link_U_DP"><path d="M58.49,429.24 C81.15,433.89 115.05,440.86 143.81,446.77 " fill="none" id="U-DP" style="stroke:#181818;stroke-width:1.0;"/></g><!--link U to VP--><g id="link_U_VP"><path d="M58.33,458.86 C68.34,470.69 80.65,483.14 94,492 C109.02,501.97 127.1,509.47 143.95,514.97 " fill="none" id="U-VP" style="stroke:#181818;stroke-width:1.0;"/></g><!--link U to RU--><g id="link_U_RU"><path d="M40.71,462.63 C48.88,493.98 64.77,537.23 94,564 C105.77,574.79 120.98,582.26 136.13,587.43 " fill="none" id="U-RU" style="stroke:#181818;stroke-width:1.0;"/></g><!--link U to LL--><g id="link_U_LL"><path d="M33.69,462.43 C36.61,509.27 48.53,587.99 94,635 C106.2,647.61 123.12,655.55 139.79,660.54 " fill="none" id="U-LL" style="stroke:#181818;stroke-width:1.0;"/></g><!--link U to RS--><g id="link_U_RS"><path d="M36.77,462.52 C44.16,530.45 62.61,667.72 94,703 C104.45,714.75 118.93,722.67 133.77,728 " fill="none" id="U-RS" style="stroke:#181818;stroke-width:1.0;"/></g><!--link U to AP--><g id="link_U_AP"><path d="M34.78,462.45 C39.3,543.6 53.85,728.67 94,775 C105.05,787.75 120.95,795.75 137.01,800.76 " fill="none" id="U-AP" style="stroke:#181818;stroke-width:1.0;"/></g><!--link A to GA--><g id="link_A_GA"><path d="M53.75,953.7 C64.47,940.34 78.54,925.26 94,915 C108.46,905.4 125.75,898.09 142.07,892.65 " fill="none" id="A-GA" style="stroke:#181818;stroke-width:1.0;"/></g><!--link A to MA--><g id="link_A_MA"><path d="M53.95,978.69 C77.08,973.94 115.18,966.11 146.45,959.69 " fill="none" id="A-MA" style="stroke:#181818;stroke-width:1.0;"/></g><!--link A to GE--><g id="link_A_GE"><path d="M53.95,987.43 C76.13,992.12 112.05,999.72 142.54,1006.17 " fill="none" id="A-GE" style="stroke:#181818;stroke-width:1.0;"/></g><!--link A to ET--><g id="link_A_ET"><path d="M53.82,1013.59 C64.47,1027.27 78.45,1042.62 94,1053 C108.71,1062.82 126.43,1070.12 143.06,1075.43 " fill="none" id="A-ET" style="stroke:#181818;stroke-width:1.0;"/></g><!--SRC=[TP9DQiCm48NtFiMGVUWPH2n2mGd6YTsri2UEm9MA99VIqiFaBBbOHpyKYQORFwptQUPff0Kl3fm68-UhWqaQ79tKgXAZqmPwkmeZDGWBVLfYqwjKVe5LdXLgNX0sH-qGNiGx0ckVD_1L0QmMHs79snaf310XDdxVxfYRV98kTtdXrhXWOTU5FKZAjyZFd1YEVtktzziiLMhVFcYV0xnzb20dwlQV43aq5527ixJEY33I-urc6g2kpw56q-ud-khL1RjfoXhZ-eQ-nWdLDNRfJZd1t6yID1Uv18GLGVPeK8r-A6n4QsECFSkHWrQIRjeZ_Yx9Fx379RWnsiOAl9Zg1qNrKpkZTHW9Vgw-gwg7xTQ_WA0yQPrqI4fN5FsaTT8XAKqjA8qd_f-YqacPLpfEq4DI2XUKdty0]--></g></svg>