<?xml version="1.0" encoding="us-ascii" standalone="no"?><svg xmlns="http://www.w3.org/2000/svg" xmlns:xlink="http://www.w3.org/1999/xlink" contentStyleType="text/css" height="612px" preserveAspectRatio="none" style="width:2858px;height:612px;background:#FFFFFF;" version="1.1" viewBox="0 0 2858 612" width="2858px" zoomAndPan="magnify"><defs/><g><!--cluster Servidor Web--><g id="cluster_Servidor Web"><polygon fill="none" points="16,167.3,26,157.3,2841,157.3,2841,585.19,2831,595.19,16,595.19,16,167.3" style="stroke:#181818;stroke-width:1.0;"/><line style="stroke:#181818;stroke-width:1.0;" x1="2831" x2="2841" y1="167.3" y2="157.3"/><line style="stroke:#181818;stroke-width:1.0;" x1="16" x2="2831" y1="167.3" y2="167.3"/><line style="stroke:#181818;stroke-width:1.0;" x1="2831" x2="2831" y1="167.3" y2="595.19"/><text fill="#000000" font-family="sans-serif" font-size="14" font-weight="bold" lengthAdjust="spacing" textLength="107" x="1371" y="183.2951">Servidor Web</text></g><!--cluster Note Wave API--><g id="cluster_Note Wave API"><path d="M42.5,205.3 L158.5,205.3 A3.75,3.75 0 0 1 161,207.8 L168,227.5969 L2201.5,227.5969 A2.5,2.5 0 0 1 2204,230.0969 L2204,568.69 A2.5,2.5 0 0 1 2201.5,571.19 L42.5,571.19 A2.5,2.5 0 0 1 40,568.69 L40,207.8 A2.5,2.5 0 0 1 42.5,205.3 " fill="none" style="stroke:#000000;stroke-width:1.5;"/><line style="stroke:#000000;stroke-width:1.5;" x1="40" x2="168" y1="227.5969" y2="227.5969"/><text fill="#000000" font-family="sans-serif" font-size="14" font-weight="bold" lengthAdjust="spacing" textLength="115" x="44" y="220.2951">Note Wave API</text></g><!--cluster Banco de Dados PostgreSQL--><g id="cluster_Banco de Dados PostgreSQL"><path d="M2228,359.6 C2228,349.6 2522.5,349.6 2522.5,349.6 C2522.5,349.6 2817,349.6 2817,359.6 L2817,451.89 C2817,461.89 2522.5,461.89 2522.5,461.89 C2522.5,461.89 2228,461.89 2228,451.89 L2228,359.6 " fill="none" style="stroke:#181818;stroke-width:1.0;"/><path d="M2228,359.6 C2228,369.6 2522.5,369.6 2522.5,369.6 C2522.5,369.6 2817,369.6 2817,359.6 " fill="none" style="stroke:#181818;stroke-width:1.0;"/><text fill="#000000" font-family="sans-serif" font-size="14" font-weight="bold" lengthAdjust="spacing" textLength="225" x="2410" y="384.5951">Banco de Dados PostgreSQL</text></g><!--cluster Cliente Front-end--><g id="cluster_Cliente Front-end"><polygon fill="none" points="1593,16,1603,6,1807,6,1807,98.3,1797,108.3,1593,108.3,1593,16" style="stroke:#181818;stroke-width:1.0;"/><line style="stroke:#181818;stroke-width:1.0;" x1="1797" x2="1807" y1="16" y2="6"/><line style="stroke:#181818;stroke-width:1.0;" x1="1593" x2="1797" y1="16" y2="16"/><line style="stroke:#181818;stroke-width:1.0;" x1="1797" x2="1797" y1="16" y2="108.3"/><text fill="#000000" font-family="sans-serif" font-size="14" font-weight="bold" lengthAdjust="spacing" textLength="138" x="1627" y="31.9951">Cliente Front-end</text></g><!--entity Autentica??o--><g id="elem_Autentica&#231;&#227;o"><rect fill="#F1F1F1" height="46.2969" rx="2.5" ry="2.5" style="stroke:#181818;stroke-width:0.5;" width="130" x="1527" y="240.3"/><rect fill="#F1F1F1" height="10" style="stroke:#181818;stroke-width:0.5;" width="15" x="1637" y="245.3"/><rect fill="#F1F1F1" height="2" style="stroke:#181818;stroke-width:0.5;" width="4" x="1635" y="247.3"/><rect fill="#F1F1F1" height="2" style="stroke:#181818;stroke-width:0.5;" width="4" x="1635" y="251.3"/><text fill="#000000" font-family="sans-serif" font-size="14" lengthAdjust="spacing" textLength="90" x="1542" y="273.2951">Autentica&#231;&#227;o</text></g><!--entity Gerenciamento de Notas--><g id="elem_Gerenciamento de Notas"><rect fill="#F1F1F1" height="46.2969" rx="2.5" ry="2.5" style="stroke:#181818;stroke-width:0.5;" width="213" x="1278.5" y="240.3"/><rect fill="#F1F1F1" height="10" style="stroke:#181818;stroke-width:0.5;" width="15" x="1471.5" y="245.3"/><rect fill="#F1F1F1" height="2" style="stroke:#181818;stroke-width:0.5;" width="4" x="1469.5" y="247.3"/><rect fill="#F1F1F1" height="2" style="stroke:#181818;stroke-width:0.5;" width="4" x="1469.5" y="251.3"/><text fill="#000000" font-family="sans-serif" font-size="14" lengthAdjust="spacing" textLength="173" x="1293.5" y="273.2951">Gerenciamento de Notas</text></g><!--entity Gerenciamento de P?ginas--><g id="elem_Gerenciamento de P&#225;ginas"><rect fill="#F1F1F1" height="46.2969" rx="2.5" ry="2.5" style="stroke:#181818;stroke-width:0.5;" width="227" x="1960.5" y="240.3"/><rect fill="#F1F1F1" height="10" style="stroke:#181818;stroke-width:0.5;" width="15" x="2167.5" y="245.3"/><rect fill="#F1F1F1" height="2" style="stroke:#181818;stroke-width:0.5;" width="4" x="2165.5" y="247.3"/><rect fill="#F1F1F1" height="2" style="stroke:#181818;stroke-width:0.5;" width="4" x="2165.5" y="251.3"/><text fill="#000000" font-family="sans-serif" font-size="14" lengthAdjust="spacing" textLength="187" x="1975.5" y="273.2951">Gerenciamento de P&#225;ginas</text></g><!--entity Gerenciamento de Usu?rios--><g id="elem_Gerenciamento de Usu&#225;rios"><rect fill="#F1F1F1" height="46.2969" rx="2.5" ry="2.5" style="stroke:#181818;stroke-width:0.5;" width="233" x="1692.5" y="240.3"/><rect fill="#F1F1F1" height="10" style="stroke:#181818;stroke-width:0.5;" width="15" x="1905.5" y="245.3"/><rect fill="#F1F1F1" height="2" style="stroke:#181818;stroke-width:0.5;" width="4" x="1903.5" y="247.3"/><rect fill="#F1F1F1" height="2" style="stroke:#181818;stroke-width:0.5;" width="4" x="1903.5" y="251.3"/><text fill="#000000" font-family="sans-serif" font-size="14" lengthAdjust="spacing" textLength="193" x="1707.5" y="273.2951">Gerenciamento de Usu&#225;rios</text></g><!--entity Middleware de Rate Limiting--><g id="elem_Middleware de Rate Limiting"><rect fill="#F1F1F1" height="46.2969" rx="2.5" ry="2.5" style="stroke:#181818;stroke-width:0.5;" width="232" x="56" y="240.3"/><rect fill="#F1F1F1" height="10" style="stroke:#181818;stroke-width:0.5;" width="15" x="268" y="245.3"/><rect fill="#F1F1F1" height="2" style="stroke:#181818;stroke-width:0.5;" width="4" x="266" y="247.3"/><rect fill="#F1F1F1" height="2" style="stroke:#181818;stroke-width:0.5;" width="4" x="266" y="251.3"/><text fill="#000000" font-family="sans-serif" font-size="14" lengthAdjust="spacing" textLength="192" x="71" y="273.2951">Middleware de Rate Limiting</text></g><!--entity Middleware de Valida??o de Corpo--><g id="elem_Middleware de Valida&#231;&#227;o de Corpo"><rect fill="#F1F1F1" height="46.2969" rx="2.5" ry="2.5" style="stroke:#181818;stroke-width:0.5;" width="277" x="322.5" y="240.3"/><rect fill="#F1F1F1" height="10" style="stroke:#181818;stroke-width:0.5;" width="15" x="579.5" y="245.3"/><rect fill="#F1F1F1" height="2" style="stroke:#181818;stroke-width:0.5;" width="4" x="577.5" y="247.3"/><rect fill="#F1F1F1" height="2" style="stroke:#181818;stroke-width:0.5;" width="4" x="577.5" y="251.3"/><text fill="#000000" font-family="sans-serif" font-size="14" lengthAdjust="spacing" textLength="237" x="337.5" y="273.2951">Middleware de Valida&#231;&#227;o de Corpo</text></g><!--entity Middleware de Verifica??o de Admin--><g id="elem_Middleware de Verifica&#231;&#227;o de Admin"><rect fill="#F1F1F1" height="46.2969" rx="2.5" ry="2.5" style="stroke:#181818;stroke-width:0.5;" width="287" x="634.5" y="240.3"/><rect fill="#F1F1F1" height="10" style="stroke:#181818;stroke-width:0.5;" width="15" x="901.5" y="245.3"/><rect fill="#F1F1F1" height="2" style="stroke:#181818;stroke-width:0.5;" width="4" x="899.5" y="247.3"/><rect fill="#F1F1F1" height="2" style="stroke:#181818;stroke-width:0.5;" width="4" x="899.5" y="251.3"/><text fill="#000000" font-family="sans-serif" font-size="14" lengthAdjust="spacing" textLength="247" x="649.5" y="273.2951">Middleware de Verifica&#231;&#227;o de Admin</text></g><!--entity Middleware de Verifica??o de Token--><g id="elem_Middleware de Verifica&#231;&#227;o de Token"><rect fill="#F1F1F1" height="46.2969" rx="2.5" ry="2.5" style="stroke:#181818;stroke-width:0.5;" width="288" x="956" y="240.3"/><rect fill="#F1F1F1" height="10" style="stroke:#181818;stroke-width:0.5;" width="15" x="1224" y="245.3"/><rect fill="#F1F1F1" height="2" style="stroke:#181818;stroke-width:0.5;" width="4" x="1222" y="247.3"/><rect fill="#F1F1F1" height="2" style="stroke:#181818;stroke-width:0.5;" width="4" x="1222" y="251.3"/><text fill="#000000" font-family="sans-serif" font-size="14" lengthAdjust="spacing" textLength="248" x="971" y="273.2951">Middleware de Verifica&#231;&#227;o de Token</text></g><!--entity Middleware de Verifica??o de Permiss?es--><g id="elem_Middleware de Verifica&#231;&#227;o de Permiss&#245;es"><rect fill="#F1F1F1" height="46.2969" rx="2.5" ry="2.5" style="stroke:#181818;stroke-width:0.5;" width="325" x="56.5" y="399.6"/><rect fill="#F1F1F1" height="10" style="stroke:#181818;stroke-width:0.5;" width="15" x="361.5" y="404.6"/><rect fill="#F1F1F1" height="2" style="stroke:#181818;stroke-width:0.5;" width="4" x="359.5" y="406.6"/><rect fill="#F1F1F1" height="2" style="stroke:#181818;stroke-width:0.5;" width="4" x="359.5" y="410.6"/><text fill="#000000" font-family="sans-serif" font-size="14" lengthAdjust="spacing" textLength="285" x="71.5" y="432.5951">Middleware de Verifica&#231;&#227;o de Permiss&#245;es</text></g><!--entity Middleware de Valida??o de ID de P?ginas--><g id="elem_Middleware de Valida&#231;&#227;o de ID de P&#225;ginas"><rect fill="#F1F1F1" height="46.2969" rx="2.5" ry="2.5" style="stroke:#181818;stroke-width:0.5;" width="329" x="416.5" y="399.6"/><rect fill="#F1F1F1" height="10" style="stroke:#181818;stroke-width:0.5;" width="15" x="725.5" y="404.6"/><rect fill="#F1F1F1" height="2" style="stroke:#181818;stroke-width:0.5;" width="4" x="723.5" y="406.6"/><rect fill="#F1F1F1" height="2" style="stroke:#181818;stroke-width:0.5;" width="4" x="723.5" y="410.6"/><text fill="#000000" font-family="sans-serif" font-size="14" lengthAdjust="spacing" textLength="289" x="431.5" y="432.5951">Middleware de Valida&#231;&#227;o de ID de P&#225;ginas</text></g><!--entity Middleware de Valida??o de ID de Notas--><g id="elem_Middleware de Valida&#231;&#227;o de ID de Notas"><rect fill="#F1F1F1" height="46.2969" rx="2.5" ry="2.5" style="stroke:#181818;stroke-width:0.5;" width="315" x="780.5" y="399.6"/><rect fill="#F1F1F1" height="10" style="stroke:#181818;stroke-width:0.5;" width="15" x="1075.5" y="404.6"/><rect fill="#F1F1F1" height="2" style="stroke:#181818;stroke-width:0.5;" width="4" x="1073.5" y="406.6"/><rect fill="#F1F1F1" height="2" style="stroke:#181818;stroke-width:0.5;" width="4" x="1073.5" y="410.6"/><text fill="#000000" font-family="sans-serif" font-size="14" lengthAdjust="spacing" textLength="275" x="795.5" y="432.5951">Middleware de Valida&#231;&#227;o de ID de Notas</text></g><!--entity Middleware de Tratamento de Erros--><g id="elem_Middleware de Tratamento de Erros"><rect fill="#F1F1F1" height="46.2969" rx="2.5" ry="2.5" style="stroke:#181818;stroke-width:0.5;" width="286" x="1130" y="399.6"/><rect fill="#F1F1F1" height="10" style="stroke:#181818;stroke-width:0.5;" width="15" x="1396" y="404.6"/><rect fill="#F1F1F1" height="2" style="stroke:#181818;stroke-width:0.5;" width="4" x="1394" y="406.6"/><rect fill="#F1F1F1" height="2" style="stroke:#181818;stroke-width:0.5;" width="4" x="1394" y="410.6"/><text fill="#000000" font-family="sans-serif" font-size="14" lengthAdjust="spacing" textLength="246" x="1145" y="432.5951">Middleware de Tratamento de Erros</text></g><!--entity Middleware de Cria??o de Logs--><g id="elem_Middleware de Cria&#231;&#227;o de Logs"><rect fill="#F1F1F1" height="46.2969" rx="2.5" ry="2.5" style="stroke:#181818;stroke-width:0.5;" width="254" x="92" y="508.89"/><rect fill="#F1F1F1" height="10" style="stroke:#181818;stroke-width:0.5;" width="15" x="326" y="513.89"/><rect fill="#F1F1F1" height="2" style="stroke:#181818;stroke-width:0.5;" width="4" x="324" y="515.89"/><rect fill="#F1F1F1" height="2" style="stroke:#181818;stroke-width:0.5;" width="4" x="324" y="519.89"/><text fill="#000000" font-family="sans-serif" font-size="14" lengthAdjust="spacing" textLength="214" x="107" y="541.8851">Middleware de Cria&#231;&#227;o de Logs</text></g><!--entity Testes de Integra??o e E2E--><g id="elem_Testes de Integra&#231;&#227;o e E2E"><rect fill="#F1F1F1" height="46.2969" rx="2.5" ry="2.5" style="stroke:#181818;stroke-width:0.5;" width="231" x="380.5" y="508.89"/><rect fill="#F1F1F1" height="10" style="stroke:#181818;stroke-width:0.5;" width="15" x="591.5" y="513.89"/><rect fill="#F1F1F1" height="2" style="stroke:#181818;stroke-width:0.5;" width="4" x="589.5" y="515.89"/><rect fill="#F1F1F1" height="2" style="stroke:#181818;stroke-width:0.5;" width="4" x="589.5" y="519.89"/><text fill="#000000" font-family="sans-serif" font-size="14" lengthAdjust="spacing" textLength="191" x="395.5" y="541.8851">Testes de Integra&#231;&#227;o e E2E</text></g><!--entity Dados de Usu?rios--><g id="elem_Dados de Usu&#225;rios"><rect fill="#F1F1F1" height="46.2969" rx="2.5" ry="2.5" style="stroke:#181818;stroke-width:0.5;" width="171" x="2429.5" y="399.6"/><rect fill="#F1F1F1" height="10" style="stroke:#181818;stroke-width:0.5;" width="15" x="2580.5" y="404.6"/><rect fill="#F1F1F1" height="2" style="stroke:#181818;stroke-width:0.5;" width="4" x="2578.5" y="406.6"/><rect fill="#F1F1F1" height="2" style="stroke:#181818;stroke-width:0.5;" width="4" x="2578.5" y="410.6"/><text fill="#000000" font-family="sans-serif" font-size="14" lengthAdjust="spacing" textLength="131" x="2444.5" y="432.5951">Dados de Usu&#225;rios</text></g><!--entity Dados de Notas--><g id="elem_Dados de Notas"><rect fill="#F1F1F1" height="46.2969" rx="2.5" ry="2.5" style="stroke:#181818;stroke-width:0.5;" width="151" x="2243.5" y="399.6"/><rect fill="#F1F1F1" height="10" style="stroke:#181818;stroke-width:0.5;" width="15" x="2374.5" y="404.6"/><rect fill="#F1F1F1" height="2" style="stroke:#181818;stroke-width:0.5;" width="4" x="2372.5" y="406.6"/><rect fill="#F1F1F1" height="2" style="stroke:#181818;stroke-width:0.5;" width="4" x="2372.5" y="410.6"/><text fill="#000000" font-family="sans-serif" font-size="14" lengthAdjust="spacing" textLength="111" x="2258.5" y="432.5951">Dados de Notas</text></g><!--entity Dados de P?ginas--><g id="elem_Dados de P&#225;ginas"><rect fill="#F1F1F1" height="46.2969" rx="2.5" ry="2.5" style="stroke:#181818;stroke-width:0.5;" width="165" x="2635.5" y="399.6"/><rect fill="#F1F1F1" height="10" style="stroke:#181818;stroke-width:0.5;" width="15" x="2780.5" y="404.6"/><rect fill="#F1F1F1" height="2" style="stroke:#181818;stroke-width:0.5;" width="4" x="2778.5" y="406.6"/><rect fill="#F1F1F1" height="2" style="stroke:#181818;stroke-width:0.5;" width="4" x="2778.5" y="410.6"/><text fill="#000000" font-family="sans-serif" font-size="14" lengthAdjust="spacing" textLength="125" x="2650.5" y="432.5951">Dados de P&#225;ginas</text></g><!--entity Aplica??o Web--><g id="elem_Aplica&#231;&#227;o Web"><rect fill="#F1F1F1" height="46.2969" rx="2.5" ry="2.5" style="stroke:#181818;stroke-width:0.5;" width="140" x="1630" y="46"/><rect fill="#F1F1F1" height="10" style="stroke:#181818;stroke-width:0.5;" width="15" x="1750" y="51"/><rect fill="#F1F1F1" height="2" style="stroke:#181818;stroke-width:0.5;" width="4" x="1748" y="53"/><rect fill="#F1F1F1" height="2" style="stroke:#181818;stroke-width:0.5;" width="4" x="1748" y="57"/><text fill="#000000" font-family="sans-serif" font-size="14" lengthAdjust="spacing" textLength="100" x="1645" y="78.9951">Aplica&#231;&#227;o Web</text></g><!--link Aplica??o Web to Autentica??o--><g id="link_Aplica&#231;&#227;o Web_Autentica&#231;&#227;o"><path d="M1667.24,92.6 C1656.36,101.41 1645,112.3 1637,124.3 C1612.66,160.82 1601.6926,205.6166 1596.4726,234.3466 " fill="none" id="Aplica&#231;&#227;o Web-to-Autentica&#231;&#227;o" style="stroke:#181818;stroke-width:1.0;"/><polygon fill="#181818" points="1595.4,240.25,1600.9445,232.11,1596.2938,235.3305,1593.0733,230.6799,1595.4,240.25" style="stroke:#181818;stroke-width:1.0;"/><text fill="#000000" font-family="sans-serif" font-size="13" lengthAdjust="spacing" textLength="111" x="1638" y="137.3669">Requisi&#231;&#245;es HTTP</text></g><!--link Aplica??o Web to Gerenciamento de Notas--><g id="link_Aplica&#231;&#227;o Web_Gerenciamento de Notas"><path d="M1629.57,79.7 C1590.87,87.34 1543.29,100.83 1506,124.3 C1458.11,154.45 1421.7106,204.1568 1401.8906,234.9068 " fill="none" id="Aplica&#231;&#227;o Web-to-Gerenciamento de Notas" style="stroke:#181818;stroke-width:1.0;"/><polygon fill="#181818" points="1398.64,239.95,1406.878,234.5523,1401.3488,235.7474,1400.1538,230.2182,1398.64,239.95" style="stroke:#181818;stroke-width:1.0;"/><text fill="#000000" font-family="sans-serif" font-size="13" lengthAdjust="spacing" textLength="111" x="1507" y="137.3669">Requisi&#231;&#245;es HTTP</text></g><!--link Aplica??o Web to Gerenciamento de P?ginas--><g id="link_Aplica&#231;&#227;o Web_Gerenciamento de P&#225;ginas"><path d="M1770.3,83.68 C1820.99,95.59 1889.6,116.29 1943,149.3 C1985.44,175.53 2023.686,211.0688 2048.316,235.7988 " fill="none" id="Aplica&#231;&#227;o Web-to-Gerenciamento de P&#225;ginas" style="stroke:#181818;stroke-width:1.0;"/><polygon fill="#181818" points="2052.55,240.05,2049.0331,230.8505,2049.0216,236.5073,2043.3648,236.4959,2052.55,240.05" style="stroke:#181818;stroke-width:1.0;"/><text fill="#000000" font-family="sans-serif" font-size="13" lengthAdjust="spacing" textLength="111" x="1926" y="137.3669">Requisi&#231;&#245;es HTTP</text></g><!--link Aplica??o Web to Gerenciamento de Usu?rios--><g id="link_Aplica&#231;&#227;o Web_Gerenciamento de Usu&#225;rios"><path d="M1726.48,92.55 C1736.08,101.66 1746.42,112.76 1754,124.3 C1778.53,161.62 1793.3749,205.8199 1801.4949,234.2999 " fill="none" id="Aplica&#231;&#227;o Web-to-Gerenciamento de Usu&#225;rios" style="stroke:#181818;stroke-width:1.0;"/><polygon fill="#181818" points="1803.14,240.07,1804.519,230.3182,1801.7691,235.2616,1796.8256,232.5117,1803.14,240.07" style="stroke:#181818;stroke-width:1.0;"/><text fill="#000000" font-family="sans-serif" font-size="13" lengthAdjust="spacing" textLength="111" x="1763" y="137.3669">Requisi&#231;&#245;es HTTP</text></g><!--link Autentica??o to Dados de Usu?rios--><g id="link_Autentica&#231;&#227;o_Dados de Usu&#225;rios"><path d="M1657.45,283.12 C1663.35,284.43 1669.27,285.62 1675,286.6 C1949.64,333.15 2022.18,313.23 2300,333.6 C2324.89,335.42 2388.7,332.66 2412,341.6 C2444.37,354.01 2470.5753,375.9995 2489.8453,395.0695 " fill="none" id="Autentica&#231;&#227;o-to-Dados de Usu&#225;rios" style="stroke:#181818;stroke-width:1.0;"/><polygon fill="#181818" points="2494.11,399.29,2490.5266,390.1162,2490.5561,395.773,2484.8993,395.8025,2494.11,399.29" style="stroke:#181818;stroke-width:1.0;"/><text fill="#000000" font-family="sans-serif" font-size="13" lengthAdjust="spacing" textLength="37" x="2301" y="329.6669">CRUD</text></g><!--link Gerenciamento de Notas to Dados de Notas--><g id="link_Gerenciamento de Notas_Dados de Notas"><path d="M1491.81,283.87 C1497.62,284.82 1503.38,285.73 1509,286.6 C1671.11,311.47 1711.47,321.14 1875,333.6 C1911.46,336.37 2169.25,330.22 2204,341.6 C2239.62,353.26 2269.5202,375.9086 2291.2602,395.2786 " fill="none" id="Gerenciamento de Notas-to-Dados de Notas" style="stroke:#181818;stroke-width:1.0;"/><polygon fill="#181818" points="2295.74,399.27,2291.6813,390.2963,2292.0068,395.9438,2286.3594,396.2694,2295.74,399.27" style="stroke:#181818;stroke-width:1.0;"/><text fill="#000000" font-family="sans-serif" font-size="13" lengthAdjust="spacing" textLength="37" x="1876" y="329.6669">CRUD</text></g><!--link Gerenciamento de P?ginas to Dados de P?ginas--><g id="link_Gerenciamento de P&#225;ginas_Dados de P&#225;ginas"><path d="M2187.85,273.47 C2323.98,285.5 2542.87,309.1 2618,341.6 C2649.04,355.02 2674.2161,376.5287 2693.0161,395.2287 " fill="none" id="Gerenciamento de P&#225;ginas-to-Dados de P&#225;ginas" style="stroke:#181818;stroke-width:1.0;"/><polygon fill="#181818" points="2697.27,399.46,2693.71,390.2771,2693.7251,395.9339,2688.0682,395.949,2697.27,399.46" style="stroke:#181818;stroke-width:1.0;"/><text fill="#000000" font-family="sans-serif" font-size="13" lengthAdjust="spacing" textLength="37" x="2595" y="329.6669">CRUD</text></g><!--link Gerenciamento de Usu?rios to Dados de Usu?rios--><g id="link_Gerenciamento de Usu&#225;rios_Dados de Usu&#225;rios"><path d="M1925.88,284.1 C1931.67,284.97 1937.4,285.81 1943,286.6 C2150.81,315.94 2217.81,262 2412,341.6 C2443.87,354.66 2469.8945,376.2811 2489.2845,395.1011 " fill="none" id="Gerenciamento de Usu&#225;rios-to-Dados de Usu&#225;rios" style="stroke:#181818;stroke-width:1.0;"/><polygon fill="#181818" points="2493.59,399.28,2489.9177,390.1414,2490.0021,395.7976,2484.3459,395.882,2493.59,399.28" style="stroke:#181818;stroke-width:1.0;"/><text fill="#000000" font-family="sans-serif" font-size="13" lengthAdjust="spacing" textLength="37" x="2390" y="329.6669">CRUD</text></g><!--SRC=[fLBDJi904BxtAIRSkNZqO58BAWcQ2aKEXCFA3it4TXTt5pmO7ePuy0byWhwOsrRQ4hgn2OSUEj_FpZSpGdA4tXJLZhXKCCVN7dnw06kPS5JGUv86OSvs27uuAY60XRyrA0ojMFQTVSbbMRn7XM95BBMG16jhjKoxm30xn2JS-4nliuCYUIGy4kS9VZ25EJfXjgqnfMH8nAsC5vOGB_lBVmEfDhATY8hMnoXvmUSfYMxKIBvXHsg8AYMjin_KNVeT3Lg6r47HdFafFLBCrECTAkKORQ2eDXtB-CYAK1lKnKl2OAp-IDRgQfXJzlRZzebNfkr5tJAnAXm6Z4iDeTGcLZXz7bStL08jcww0PfQgs1p9tjjxdYWkE4Z8HaEuKrAOFWfUlhFmDqcr1NlSornnLeH-_-RigE4Q9lY-9KtstsuD7g8eT6aTjt-PHnNrCfjwlkq-tbdomgTbFrOVJ6O3pndtL5ZDm26gyvtgchaTqaPF_pJx2m00]--></g></svg>